<svg width="560" height="174" xmlns="http://www.w3.org/2000/svg" xmlns:xlink="http://www.w3.org/1999/xlink" xml:space="preserve" overflow="hidden"><g transform="translate(-1057 -487)"><g><g><g><path d="M57.0082 102.929C81.7342 102.929 101.901 82.7621 101.901 58.0361 101.901 33.3102 81.7342 13.1436 57.0082 13.1436 32.2822 13.1436 12.1155 33.3102 12.1155 58.0361 12.1155 82.7621 32.2822 102.929 57.0082 102.929L57.0082 102.929ZM57.0082 104.564C31.3816 104.564 10.4806 83.6626 10.4806 58.0361 10.4806 32.4097 31.3816 11.5087 57.0082 11.5087 82.6347 11.5087 103.536 32.4097 103.536 58.0361 103.536 83.6626 82.6346 104.564 57.0082 104.564L57.0082 104.564Z" fill="#FFFFFF" transform="matrix(1 0 0 1.0087 1057 504)"/><path d="M57.0082 101.304C80.6928 101.304 100.01 81.8755 100.01 58.0549 100.01 34.2343 80.6928 14.8061 57.0082 14.8061 33.3235 14.8061 14.0063 34.2343 14.0063 58.0549 14.0063 81.8755 33.3235 101.304 57.0082 101.304L57.0082 101.304ZM57.0082 101.621C33.1498 101.621 13.691 82.0502 13.691 58.0549 13.691 34.0596 33.1498 14.4889 57.0082 14.4889 80.8665 14.4889 100.325 34.0596 100.325 58.0549 100.325 82.0502 80.8665 101.621 57.0082 101.621L57.0082 101.621Z" stroke="#F2F2F2" stroke-width="0.459999" stroke-miterlimit="10" fill="#FFFFFF" transform="matrix(1 0 0 1.0087 1057 504)"/><path d="M30.7537 45.2808 83.6721 45.2808 57.0834 91.3339 30.7537 45.2808Z" stroke="#FFFFFF" stroke-width="0.115" stroke-miterlimit="10" fill="none" fill-rule="evenodd" transform="matrix(1 0 0 1.0087 1057 504)"/><path d="M70.959 88.9719C71.2309 88.9804 71.9691 89.4795 71.8138 89.8676 71.6909 90.1534 71.4211 90.4053 71.1337 90.5135 71.1467 90.6525 71.1359 90.6502 71.0756 90.7427 71.0237 90.7567 70.9718 90.7706 70.9203 90.7843 70.8878 90.7567 70.8554 90.7289 70.823 90.701 70.823 90.6871 70.823 90.6733 70.823 90.6593 70.7526 90.3544 71.0019 90.2626 70.9783 90.0341 70.9593 89.8484 70.7413 89.2324 70.7453 89.2007 70.7842 89.0595 70.8623 89.0462 70.959 88.9719L70.959 88.9719ZM69.8117 90.4622C69.857 90.4762 69.9021 90.4901 69.9474 90.5038 69.9409 90.754 69.9347 91.0041 69.9282 91.254 69.8504 91.3442 69.7728 91.4346 69.6949 91.5249 69.2391 91.5305 69.0551 91.1485 68.8597 90.8791 68.8742 90.7861 68.884 90.7914 68.9178 90.733 68.9242 90.733 68.9308 90.733 68.9372 90.733 69.188 90.745 69.2623 90.8778 69.5201 90.8996 69.556 90.6952 69.7025 90.5898 69.8117 90.4622L69.8117 90.4622ZM71.7728 90.7315C71.8309 90.7315 71.8894 90.7315 71.9474 90.7315 72.006 90.787 72.064 90.8424 72.1225 90.8981 72.1159 90.9538 72.1094 91.0092 72.1029 91.0647 72.0204 91.2359 71.3085 91.5408 71.0734 91.6065 71.0604 91.6341 71.0473 91.6622 71.0346 91.6898 71.0598 91.8373 71.1236 91.9615 71.19 92.0646 71.4816 92.0844 71.7709 91.8507 71.9671 91.6898 72.1462 91.7004 72.2851 91.8048 72.1808 91.9813 71.9355 92.3962 71.3019 92.2939 71.2288 92.9397 71.3105 93.1578 71.3749 93.188 71.5005 93.3356 71.4433 93.6642 70.2048 94.4255 69.9075 94.7318 69.6548 94.7367 69.5218 94.6545 69.3831 94.5441 69.3896 94.4884 69.3962 94.4328 69.4024 94.3775 69.4477 94.3425 69.4931 94.3078 69.5384 94.2732 69.6937 94.2303 69.7589 94.3175 69.8884 94.3564 70.0384 93.9119 70.7544 94.0735 70.782 93.4814 70.7157 93.3388 70.6374 93.2647 70.5295 93.1688 70.2137 93.2259 69.9637 93.6875 69.5971 93.5441 69.5582 93.5161 69.5193 93.4884 69.4805 93.4607 69.4846 93.3664 69.4939 93.3481 69.5193 93.2937 69.7365 93.286 70.5657 92.6628 70.646 92.502 70.6206 92.331 70.532 92.3155 70.4519 92.2104 70.3934 92.2035 70.3354 92.1965 70.2768 92.1898 70.0714 92.3536 69.8642 92.53 69.694 92.7312 69.4695 92.737 69.3582 92.6735 69.2279 92.5856 69.2173 92.2781 69.6376 92.2361 69.8301 92.0856 69.9952 91.9564 70.2197 91.8859 70.3933 91.7522 70.7481 91.4792 71.0526 91.0432 71.4427 90.8147 71.5526 90.787 71.6625 90.759 71.7728 90.7315L71.7728 90.7315ZM38.9086 90.0796C38.9568 90.092 39.0051 90.1045 39.0532 90.117 39.1301 90.3337 39.4043 90.4113 39.4411 90.658 39.6127 91.8168 38.4233 91.9127 38.2605 92.5691 38.2746 92.5706 38.6297 92.7097 38.643 92.7134 39.0415 92.8244 39.0328 92.8 39.3575 92.8794 39.8293 92.9947 40.8114 93.5411 41.2556 93.5073 41.548 93.4848 41.6811 93.3985 41.9914 93.4073 42.226 93.5451 42.9056 94.23 42.7137 94.5924 42.5505 94.8878 42.1578 94.7479 41.928 94.5953 41.2457 94.1419 40.2533 93.7731 39.4078 93.3479 38.9091 93.0973 37.7 93.3328 37.4907 93.208 37.2738 93.0983 37.1844 92.6981 37.3661 92.3907 37.6184 92.1499 37.8706 91.9092 38.1228 91.6683 38.28 91.4961 38.3161 91.3073 38.46 91.0961 38.5808 90.9569 38.702 90.818 38.8228 90.6787 38.8031 90.5318 38.7837 90.3848 38.7641 90.238 38.8123 90.1853 38.8604 90.1325 38.9086 90.0796L38.9086 90.0796ZM44.4558 91.0711C45.0139 91.1479 44.9857 91.5571 45.1038 92.0066 45.1382 92.1377 45.2568 92.2762 45.1908 92.4264 44.9125 92.9234 43.8988 92.5046 43.9149 92.0161 44.0322 91.8767 44.1498 91.7375 44.2674 91.5983 44.3517 91.3532 44.2707 91.2544 44.4098 91.0893 44.4253 91.0833 44.4404 91.0772 44.4558 91.0711L44.4558 91.0711ZM48.8511 95.4624C48.1854 95.5934 47.3103 97.2561 46.5252 97.1387 46.4874 97.1255 46.4491 97.112 46.4113 97.0987 46.4084 97.0449 46.4056 96.9907 46.4028 96.9367 46.5588 96.6668 46.9456 96.6327 47.2243 96.4373 47.4422 96.2848 48.5765 94.87 48.6357 94.6446 48.6272 94.5985 48.6186 94.5524 48.6101 94.5063 48.5722 94.493 48.5344 94.4795 48.4966 94.4662 47.9343 94.5723 47.8089 94.8062 47.6754 94.8928 47.6315 94.9212 47.2467 95.1177 47.3109 95.0805 47.104 95.2007 47.0604 95.1912 46.9164 95.2897 46.7335 95.4149 46.6803 95.3806 46.5582 95.3576 46.5166 95.3498 46.3716 95.414 46.3294 95.4149 46.2259 95.5709 46.2032 95.5589 45.9637 95.6314 45.9071 95.5943 45.8615 95.5724 45.8049 95.5352 45.7702 95.2539 45.9602 94.9245 46.1513 94.7654 46.3244 94.621 46.392 94.5927 46.541 94.5922 46.7322 94.5915 46.7498 94.4768 46.8513 94.424 47.0172 94.3374 47.0952 94.4842 47.4793 94.4382 47.6452 94.4183 47.7692 94.3733 47.9075 94.2794 48.0404 94.2351 48.0861 94.272 48.1611 94.2629 48.6826 94.1994 48.98 93.5924 49.1698 93.2797 49.1241 93.0092 49.0689 92.1196 49.1376 91.9584 49.1383 91.9412 49.146 91.873 49.107 91.8723 48.9163 91.8687 48.7583 91.7081 48.7842 91.6566 48.7874 91.2114 49.6169 91.4662 49.7289 91.7062 50.0139 92.3187 49.6351 92.8587 49.6548 93.3736 49.7787 93.5098 49.8787 93.5534 49.9276 93.8133 49.8827 93.9788 49.8248 94.0823 49.5809 94.1224 49.6494 94.2137 49.6958 94.3576 49.8377 94.3606 50.1008 94.1802 51.1226 92.7061 51.082 92.3539 50.8988 92.1542 50.9102 92.092 51.0352 91.8723 51.0421 91.871 51.0491 91.8698 51.056 91.8684 51.4636 91.8043 52.1322 92.4069 51.9353 92.8286 51.6524 93.4357 51.2287 94.0342 50.7112 94.4849 50.4408 94.7203 49.9377 94.7804 49.7957 95.1649 49.6997 95.4235 49.714 95.64 49.6563 95.9052 49.6237 96.0553 49.4503 96.2329 49.4217 96.3635 49.3584 96.6539 49.4079 96.4883 49.356 96.9161 49.3463 96.9954 49.3346 97.1281 49.3443 97.1806 49.3572 97.2377 49.346 97.2137 49.3558 97.2679 49.3825 97.6494 49.3006 97.9712 49.0288 98.1598 48.6437 98.4272 48.2631 98.0877 48.1068 97.9555 48.1694 98.0083 48.0724 97.9121 48.016 97.8567 48.003 97.8252 47.9784 97.768 47.9655 97.7364 47.9891 97.6505 48.008 97.6628 48.079 97.6064 48.2582 97.5078 48.4805 97.5536 48.6157 97.4049 48.7669 97.2384 48.9223 95.8311 48.8511 95.4624L48.8511 95.4624ZM72.8022 92.0213C72.9455 92.0213 72.9752 92.0502 73.0548 92.1046 73.0613 92.1743 73.0679 92.2435 73.0744 92.313 72.9055 92.6698 72.329 92.6527 72.0836 93.0839 71.954 93.0769 71.8244 93.0699 71.6949 93.0629 71.669 93.0493 71.6433 93.0353 71.6172 93.0213 71.6236 92.9796 71.6302 92.938 71.6368 92.8963 71.7432 92.6507 72.5192 92.1948 72.8022 92.0213L72.8022 92.0213ZM41.0509 90.8084C41.1317 90.8248 41.2125 90.841 41.2931 90.8573 41.4202 91.006 41.4511 91.0419 41.5932 91.2086 41.951 91.3905 42.1585 91.1264 42.4318 91.3671 42.431 91.3747 42.4302 91.3822 42.4294 91.3894 42.4092 91.5147 42.3926 91.5189 42.3411 91.5853 41.9746 91.7067 41.8309 92.1936 41.4797 92.2686 41.1575 92.3372 40.6437 91.4668 40.8216 91.0579 40.8978 90.9747 40.9745 90.8915 41.0509 90.8084L41.0509 90.8084ZM64.4646 91.6095C64.6907 91.6213 64.8039 91.7238 64.8988 91.8592 64.8914 91.9145 64.8842 91.9698 64.8769 92.0255 64.48 92.2293 62.6889 92.4986 62.5554 92.7325 62.6134 92.8917 62.6713 93.0514 62.7289 93.2107 62.1909 93.848 61.1012 94.1284 60.7982 94.9573 60.8055 94.9643 60.8124 94.9712 60.8197 94.9781 61.4089 94.9832 61.7616 94.7057 62.2953 94.6246 62.3025 94.6313 62.3099 94.6383 62.3168 94.6453 62.3168 94.6798 62.3168 94.7148 62.3168 94.7494 61.8572 95.0784 60.8005 95.4693 60.1255 95.5395 60.0614 95.4613 59.9787 95.4241 59.8871 95.3731 59.8571 95.244 59.796 95.0312 59.8437 94.9157 59.9519 94.7129 60.2531 94.7186 60.4294 94.5831 60.7918 94.3049 61.5451 93.7432 61.7311 93.3353 61.7192 93.2324 61.7123 93.2149 61.6444 93.1692 61.4555 93.0559 61.2136 93.1524 60.9934 93.1692 60.6358 93.196 60.3611 93.0461 60.1255 92.878 60.1303 92.784 60.1409 92.7656 60.1689 92.7115 60.6742 92.6537 61.0637 92.5262 61.4926 92.4412 61.6083 92.4412 61.7238 92.4412 61.8398 92.4412 61.9867 92.4064 62.0579 92.3161 62.252 92.2958 62.3217 92.2802 62.3338 92.3036 62.3759 92.2883 62.3991 92.2798 62.4166 92.2773 62.4371 92.2601 62.8239 91.9342 64.0129 91.8149 64.4646 91.6095L64.4646 91.6095ZM74.607 92.531C74.8887 92.5249 75.0368 92.6989 75.112 92.9058 75.112 92.9546 75.112 93.0031 75.112 93.0517 75.0217 93.1943 74.9486 93.3179 74.7234 93.3227 74.1787 93.1117 73.3871 93.5855 73.1498 93.4893 73.1498 93.4547 73.1498 93.42 73.1498 93.385 73.4607 92.8987 74.1848 92.8923 74.607 92.531L74.607 92.531ZM72.2962 93.2411C72.4919 93.224 72.6359 93.266 72.607 93.4287 72.6263 93.5675 72.6458 93.7062 72.6653 93.8452 72.5792 94.1071 72.2793 94.3604 72.0437 94.4077 72.0371 94.4774 72.0306 94.5466 72.024 94.6164 71.9852 94.6024 71.9464 94.5884 71.9075 94.5747 71.901 94.5608 71.8945 94.5467 71.8882 94.5329 71.9049 94.1438 72.1766 93.9094 72.2572 93.5954 72.3009 93.426 72.2293 93.3645 72.2962 93.2411L72.2962 93.2411ZM71.2071 94.3871C71.2458 94.3941 71.2847 94.401 71.3236 94.4077 71.3623 94.4427 71.4012 94.4774 71.4401 94.512 71.4336 94.5677 71.4274 94.6231 71.4209 94.6786 71.2082 94.7375 71.2051 95.0922 71.0128 95.1789 70.9025 95.1719 70.7925 95.1649 70.6826 95.1579 70.6119 95.1797 70.5457 95.2425 70.43 95.2622 70.5037 95.4616 70.409 95.5501 70.2939 95.658 70.1516 95.658 69.7826 95.5549 69.7501 95.5747 69.7253 95.5896 69.6863 95.754 69.6528 95.783 69.5104 95.8873 69.3679 95.9911 69.2253 96.0956 69.1736 96.0956 69.1218 96.0956 69.0699 96.0956 68.6634 96.3849 68.225 97.182 67.5546 96.6997 67.5481 96.6509 67.5418 96.6024 67.5354 96.5537 67.8599 96.193 67.8835 96.4548 68.2348 96.4081 68.3559 96.0377 68.6184 96.1034 68.9342 95.9496 69.5818 95.6342 70.003 94.9843 70.6049 94.6371 70.663 94.6582 70.7215 94.6788 70.7796 94.6998 70.8899 94.5608 71.0933 94.5288 71.2071 94.3871L71.2071 94.3871ZM73.3442 94.3643C73.4153 94.3714 73.4865 94.3784 73.5578 94.3854 73.6036 94.3911 73.6218 94.4345 73.6988 94.4328 73.7519 94.4316 73.8033 94.4289 73.8879 94.4892 73.8879 94.7114 73.8879 94.9337 73.8879 95.156 73.8233 95.2323 73.7587 95.309 73.6936 95.3853 73.6936 95.6075 73.6936 95.8298 73.6936 96.0521 73.5587 96.3917 73.4029 96.1757 73.2857 96.2393 73.1311 96.3233 72.8848 96.5427 72.7029 96.5935 72.5864 96.6005 72.4698 96.6075 72.3533 96.6146 72.1664 96.6823 72.1195 96.8658 71.8868 96.8855 71.5317 96.6859 71.3387 96.1453 71.0906 95.8228 70.9834 95.6839 70.7825 95.7615 70.6629 95.6351 70.6629 95.5033 70.6798 95.4771 70.7214 95.4059 71.736 95.3804 71.6001 95.8575 72.1006 96.3852 72.5297 96.3811 72.9639 96.0148 73.1887 95.7601 73.1693 95.6698 73.1497 95.5796 73.1304 95.4893 73.1087 95.2795 73.2037 95.1397 73.1498 94.9267 73.0981 94.9131 73.0463 94.8991 72.9943 94.885 72.7967 94.9752 72.6863 95.1607 72.4894 95.2186 72.4829 95.2117 72.4764 95.2047 72.4698 95.1976 72.4494 94.9881 72.4604 94.926 72.5475 94.8018 72.8383 94.7015 72.7028 94.5943 72.8778 94.4687 73.0332 94.4338 73.1887 94.399 73.3442 94.3643L73.3442 94.3643ZM63.6044 93.8854C64.4486 93.8804 64.8537 93.9502 65.2968 94.4052 65.2895 94.4607 65.2823 94.5159 65.2754 94.5715 65.2319 94.6589 65.1894 94.675 65.1015 94.7172 64.6977 94.6482 64.3915 94.3419 64.0386 94.239 63.8397 94.1809 63.5839 94.2214 63.4309 94.1348 63.4309 94.1278 63.4309 94.121 63.4309 94.1142 63.4486 93.9574 63.5038 93.9537 63.6044 93.8854L63.6044 93.8854ZM53.2188 93.4147C53.6656 93.3138 54.3821 93.577 54.2431 94.1232 54.224 94.2153 54.2099 94.2383 54.1247 94.2882 53.8867 94.4423 53.2674 94.2747 52.7959 94.2553 52.3531 94.2373 51.9253 94.3305 51.623 94.0981 51.6181 94.0719 51.6132 94.0453 51.6083 94.0192 51.6479 93.9643 51.6874 93.9092 51.7269 93.8541 51.9408 93.8187 53.021 93.7104 53.1343 93.5324 53.1622 93.4931 53.1905 93.4539 53.2188 93.4147L53.2188 93.4147ZM63.0762 95.0474C63.5533 95.084 63.3589 95.6517 63.6619 95.8377 63.9198 96.0425 64.1962 95.6932 64.4865 95.7546 64.5208 95.7622 64.5433 95.7492 64.5749 95.7531 64.5892 95.7461 64.6315 95.7392 64.646 95.7324 64.6662 95.7202 64.687 95.7168 64.7033 95.713 64.7612 95.7199 64.8192 95.7268 64.8767 95.7335 64.9273 95.7752 64.978 95.8168 65.0286 95.8585 65.025 96.002 64.9993 96.0097 64.9419 96.0872 64.4921 96.2539 63.6715 96.3314 63.575 96.8357 63.5368 97.035 63.5742 97.2462 63.5097 97.4597 63.4538 97.6448 63.3091 97.7236 63.2928 97.9588 63.3217 98.0071 63.3507 98.0556 63.3795 98.1041 64.1746 98.3161 65.2578 97.2278 66.0698 98.042 66.0627 98.0971 66.0558 98.1527 66.0484 98.2083 66.0051 98.2359 65.9617 98.2639 65.9182 98.2915 65.7978 98.3499 65.5538 98.3463 65.4408 98.2915 65.4092 98.26 65.3723 98.2348 65.333 98.2404 64.9253 98.2998 64.7204 98.248 64.3126 98.2499 64.2193 98.2501 64.0297 98.4067 63.9003 98.4372 63.6212 98.5022 63.3353 98.4347 63.0539 98.4993 62.8518 98.5894 62.6489 98.6796 62.4467 98.7698 62.0126 98.9296 61.4585 99.0833 61.058 99.2064 60.6795 99.3227 60.3122 99.0862 60.1684 98.8529 60.1755 98.8323 60.1827 98.8113 60.1902 98.7907 60.2291 98.7051 60.2754 98.6627 60.3636 98.6242 60.62 98.5008 60.8509 98.7323 61.1232 98.7073 61.6554 98.659 62.2654 98.4563 62.6417 98.229 62.7261 97.9738 62.7848 97.1989 62.5768 97.0233 62.1595 96.8303 61.4613 97.2439 60.9493 96.9191 60.9558 96.8028 60.9715 96.7977 61.0146 96.7322 61.521 96.6333 62.5407 96.5439 62.7937 96.1289 63.0043 95.784 62.7944 95.3151 63.0762 95.0474L63.0762 95.0474ZM51.4709 95.2289C51.9359 95.1253 52.5593 95.308 52.6776 95.6588 52.7855 95.9781 52.0136 96.8324 51.7151 96.7764 51.4044 96.6863 51.7859 96.1981 51.8581 96.0557 51.7173 95.8043 51.5452 95.7974 51.3556 95.6383 51.3227 95.5024 51.2951 95.4337 51.3212 95.3384 51.3713 95.3018 51.4212 95.2656 51.4709 95.2289L51.4709 95.2289ZM51.242 97.3203C51.298 97.3169 51.3542 97.3132 51.4103 97.3095 51.5007 97.4512 51.6379 97.6133 51.7652 97.7337 51.9551 97.9135 52.5507 97.86 52.452 98.3416 52.429 98.4566 52.3676 98.5544 52.2697 98.6203 52.1416 98.6863 51.8876 98.7877 51.7596 98.7355 51.6039 98.6718 51.679 98.5165 51.5908 98.3991 51.3765 98.1143 50.8228 97.7887 51.242 97.3203L51.242 97.3203Z" fill="#F2F2F2" fill-rule="evenodd" transform="matrix(1 0 0 1.0087 1057 504)"/><path d="M56.7997 47.0898 56.7943 48.0677 56.3902 48.1111 54.1454 48.941 54.1454 49.4319 54.6522 49.442 54.634 50.7791 54.3549 50.8176C54.1191 50.8421 47.8738 51.2796 45.6943 58.2224L45.622 58.5545 42.6244 58.4967 42.6148 61.653 39.8057 61.6545 40.009 61.9924 48.3679 76.0921 56.9683 76.077 65.4114 76.126 74.2838 61.7535 73.8026 61.6338 71.445 61.6435 71.445 58.5978 68.4715 58.5328 68.421 58.3092C66.4218 51.5393 59.9253 50.8135 59.9047 50.8105L59.5077 50.7816 59.4788 49.4104 59.9696 49.4176 59.948 49.0062 57.7336 48.1531 57.3355 48.0752 57.3522 46.2083 57.0539 45.7175 56.7996 46.1986 56.7996 47.0898ZM56.1688 46.8377 56.1784 45.9723 56.3324 45.8906 57.0542 45.4094 57.6027 45.7654 57.9155 45.9291 57.9078 46.7085 57.8991 47.577 59.3276 48.1869 60.5882 48.8617 60.5798 49.2081 60.5875 49.9833 59.9579 49.9851 59.957 50.2877C61.8732 50.5669 66.576 51.3949 68.9048 58.055L72.0948 58.055 72.0804 60.9962 74.2745 61.0011 75.1333 61.0083 75.2921 61.2537 75.1749 61.4673 75.0319 61.7075 65.9795 77.2906 65.8814 77.4554 65.6896 77.4568 56.9712 77.5249 56.9658 77.5249 48.2475 77.4568 48.0555 77.4554 47.9574 77.2906 38.9051 61.7075 38.7621 61.4673 38.9689 61.2804 39.3816 61.1238 39.7935 61.1424 42.0423 61.1431 42.0423 58.0926 45.2034 58.0551C47.2242 51.2651 52.7071 50.7041 54.0951 50.4183L54.1048 49.966 53.5178 49.9515 53.5033 48.905 53.5033 48.6596 53.651 48.576 56.1368 47.639 56.1665 46.9492 56.1688 46.8377ZM53.6509 48.5758 56.1772 47.6058 56.1519 47.7682" fill="#FFFFFF" transform="matrix(1 0 0 1.0087 1057 504)"/><path d="M86.7399 43.8859 85.4493 46.0997 58.3179 92.6422 57.0437 94.8279 55.7695 92.6422 28.6382 46.0997 27.3475 43.8859 86.7399 43.8859 86.7399 43.8859ZM83.1335 46.2753 31.1799 46.1569 57.0705 91.1761 82.0973 48.07 83.1335 46.2753Z" stroke="#F2F2F2" stroke-width="0.115" stroke-miterlimit="10" fill="#FFFFFF" transform="matrix(1 0 0 1.0087 1057 504)"/><path d="M29.3689 65.7571 29.3616 70.0008 28.7337 70.0008 28.7455 66.6223 27.6795 67.3883 27.6795 66.7965C28.394 66.2604 28.5089 66.1693 28.9107 65.7637L29.3256 65.7637 29.3689 65.7571ZM30.4745 69.0107 30.9681 69.0107C31.013 69.49 31.245 69.7302 31.6647 69.7302 32.1737 69.7628 32.496 69.2096 32.6311 68.0687L32.608 68.0687C32.4433 68.399 32.1366 68.5727 31.6869 68.5897 30.8788 68.5556 30.4591 68.0763 30.4293 67.1502 30.4745 66.1746 30.9087 65.6624 31.7319 65.6128 32.6456 65.6298 33.118 66.3153 33.1478 67.672 33.0874 69.2923 32.5938 70.1185 31.6648 70.1514 30.9161 70.1184 30.5195 69.7386 30.4745 69.0107L30.4745 69.0107ZM31.7771 68.0933C32.2716 68.0763 32.5255 67.7378 32.5409 67.076 32.5114 66.4647 32.2409 66.1503 31.7319 66.1333 31.2229 66.1673 30.9614 66.4973 30.946 67.126 30.9305 67.7873 31.2077 68.11 31.7771 68.0933L31.7771 68.0933ZM35.6093 67.9197C35.5939 66.7461 35.3039 66.1503 34.7399 66.1333 34.1603 66.1333 33.8784 66.7291 33.894 67.9197 33.894 69.1103 34.176 69.7049 34.7399 69.7049 35.3039 69.7049 35.594 69.1102 35.6093 67.9197L35.6093 67.9197ZM36.1676 67.9197C36.1214 69.3747 35.6453 70.1185 34.7386 70.1514 33.8014 70.1185 33.3253 69.3747 33.3096 67.9197 33.3253 66.4148 33.8015 65.6457 34.7386 65.6128 35.6453 65.6457 36.1214 66.4148 36.1676 67.9197L36.1676 67.9197ZM36.918 66.9984 36.3214 66.984C36.3551 65.9496 36.8255 65.6161 37.7601 65.5839 38.5586 65.6491 38.9768 66.1149 39.0374 66.924 39.0674 67.5395 38.6596 67.9234 38.0295 68.4611L37.6301 68.8028C37.2404 69.1355 37.1942 69.1639 37.149 69.4716L39.0374 69.4733 39.0374 69.9829 36.3118 69.9829C36.3455 69.1734 36.6654 68.9146 37.2741 68.3891L37.8515 67.9128C38.3123 67.5567 38.5253 67.3044 38.4946 66.8994 38.45 66.398 38.276 66.1973 37.7793 66.1807 37.2517 66.1805 36.9662 66.2623 36.918 66.9984L36.918 66.9984Z" fill="#FFFFFF" fill-rule="evenodd" transform="matrix(1 0 0 1.0087 1057 504)"/><path d="M68.0207 36.5002C68.0093 36.3882 68.0069 36.3516 67.999 36.0455 67.9939 35.8423 67.9979 35.7187 67.9713 35.5271 67.894 34.968 67.9338 35.1351 67.8108 34.7129 67.7945 34.6569 67.7252 34.235 67.7192 34.1769 67.7 33.9892 67.7843 33.8467 67.8587 33.8064 67.9742 33.7438 68.1297 33.9119 68.1978 34.0004 68.3927 34.2537 68.4789 34.4897 68.5054 34.6418 68.5249 34.7542 68.5865 35.2818 68.5872 35.2914 68.6061 35.5615 68.6372 35.8434 68.6641 36.0949 68.6929 36.3643 68.6112 36.4028 68.7456 36.5586 68.8117 36.6353 68.9031 36.6005 68.9304 36.6005 69.1076 36.561 69.1385 36.3309 69.1138 36.1321 69.0436 35.564 68.9515 35.4751 68.8902 35.1277 68.8468 34.8823 68.8538 34.8506 68.836 34.7283 68.8221 34.6326 68.7924 34.4918 68.7699 34.0259 68.7554 33.7276 68.7663 33.7194 68.8216 33.4762 68.8653 33.2843 68.9411 33.1684 69.0247 33.1356 69.251 33.0468 69.3943 33.0813 69.4062 33.1803 69.4726 33.7328 69.4816 33.7854 69.4916 34.16 69.5019 34.5433 69.5407 34.6213 69.5506 34.8438 69.5607 35.0738 69.6277 35.4104 69.6408 35.746 69.6561 36.1357 69.733 36.6316 70.0128 36.2589 70.1134 36.1248 70.0269 35.9645 70.0484 35.7892 70.0734 35.5867 70.0411 35.546 70.0665 35.3237 70.1097 34.9461 70.0521 34.8401 70.081 34.3277 70.09 34.1684 70.2233 34.0812 70.2181 34.045 70.2084 33.9776 70.2096 33.9967 70.1123 33.7419 70.0112 33.4772 70.1748 32.3862 70.1892 31.8883 70.1944 31.7079 70.1559 31.343 70.3155 31.163 70.41 31.0564 70.5681 31.1187 70.7244 31.1977L70.8207 31.2786C70.8315 31.4301 70.5464 31.7513 71.2898 31.4048 71.4411 31.3343 71.7337 31.1559 71.9573 31.2497 72.1426 31.3273 72.0151 31.7122 72.0151 31.7188 72.0083 31.7703 71.5361 31.9237 71.3617 32.0309 70.994 32.257 70.4774 32.0948 70.5175 33.0504 70.5133 33.1465 70.514 33.3498 70.5067 33.5483 70.5014 33.6938 70.7457 33.44 70.8929 33.4401 70.966 33.4401 71.1028 33.5727 71.1148 33.5809 71.1668 33.6162 71.2664 33.7179 71.2321 33.6801 71.2794 33.7323 71.3109 33.7742 71.3152 33.8047 71.3351 33.949 71.3386 34.2778 71.5388 34.2034 71.8177 34.0999 71.6851 34.1501 71.8709 34.0663 71.9597 34.0261 72.174 34.0698 72.3219 34.041 72.5139 34.0035 72.5677 33.674 72.5781 33.5032 72.5973 33.1857 72.573 33.102 72.4554 33.0053 72.2904 32.8696 72.0393 32.9114 71.7156 33.0053 71.3294 33.1172 71.2109 33.4672 71.0101 33.4528 70.9947 33.4516 70.8528 33.4209 70.8369 33.4185 70.8299 33.3605 70.8405 33.3445 70.8805 33.2589 71.1084 32.7713 72.5756 31.8897 73.0977 32.5993 73.3828 32.9869 73.2814 33.3754 73.2059 33.7276 73.1337 34.0644 73.0243 34.3185 72.9605 34.5696 72.9045 34.79 72.9248 34.8053 72.8835 35.046 72.8446 35.2733 72.8505 35.2091 72.8114 35.404 72.7838 35.5414 72.6726 35.8851 72.7729 35.9284 73 36.0206 73.3627 35.9269 73.5596 35.8814 73.9191 35.7983 74.5775 35.9902 74.7264 36.152 74.9036 36.3445 74.4654 36.8174 74.3126 36.9026 74.1543 36.9349 73.682 37.3516 73.5235 37.3838 73.186 37.5773 73.197 37.5559 72.8595 37.7495 72.4921 37.8877 71.9862 37.61 72.2532 37.9022 72.4022 38.0653 72.3369 38.2395 72.2238 38.5237 72.1103 38.5662 71.8726 38.7118 71.7529 38.7744 71.6237 38.9394 71.6198 38.9304 71.5797 39.0149 71.444 39.3008 71.0768 39.722 71.3677 39.7133 72.0865 39.6917 71.9357 40.4007 71.9357 40.4007 71.9357 40.4007 72.1942 40.3312 72.5035 40.367 72.7973 40.401 73.0468 40.3373 73.206 40.3767 73.5371 40.4587 73.8339 40.8362 73.9638 41.0995 74.0133 41.1998 73.9775 41.2983 73.8808 41.3305 73.7726 41.3666 73.6523 41.4243 73.562 41.3629 73.3585 41.2244 73.3246 41.0999 73.1483 41.0694 72.7392 40.9987 71.9466 40.9877 71.9466 40.9877 71.9466 40.9877 71.9031 41.4496 71.8961 41.4712 71.826 41.6886 71.5744 42.0698 71.4703 42.2183 71.2755 42.4961 70.826 42.7087 70.6007 42.7631 69.5542 43.0158 69.123 42.2656 69.3039 41.1802 69.3665 40.8049 69.6534 40.5774 70.0065 40.4825 70.3047 40.4023 70.856 40.4688 70.8388 40.189 70.8245 39.9532 70.782 40.0826 70.6512 39.9292 70.3288 39.5513 70.5987 39.4184 70.7955 39.2159 70.92 39.0877 70.9173 39.0538 70.9759 38.9596 71.0194 38.8898 71.077 38.7487 71.0878 38.6781 71.104 38.5716 70.9435 38.6168 70.7811 38.6366 70.3853 38.685 70.3571 38.8387 70.0666 38.755 69.9422 38.7193 69.8417 38.6295 69.9007 38.5409 70.0258 38.3532 70.0096 38.3329 70.1485 38.2666 70.3233 38.1833 70.377 38.1512 70.6044 38.0249 70.9304 37.8438 71.0435 37.7828 71.225 37.7687 71.3573 37.8177 71.5377 37.8786 71.7176 37.8463 72.0534 37.7858 72.033 37.752 72.3365 37.5162 72.5889 37.32 72.9676 37.0295 73.116 36.8758 73.146 36.8448 73.2935 36.7526 73.4637 36.5652 73.4994 36.5259 73.5059 36.4996 73.5038 36.4209 73.5029 36.3865 73.511 36.3596 73.4912 36.3162 73.4714 36.2729 73.3887 36.2622 73.2729 36.3036 73.1971 36.3306 73.1538 36.3451 73.0766 36.384 73.0635 36.3905 72.8685 36.4929 72.8555 36.4996 72.7657 36.5464 72.7262 36.5491 72.6396 36.5922 72.4283 36.6976 72.4759 36.6818 72.2328 36.7255 72.1847 36.7342 72.0383 36.8022 71.8803 36.8547 71.7476 36.8987 71.6834 37.0425 71.6112 36.8846 71.5823 36.8214 71.557 36.7619 71.5732 36.6771 71.5897 36.5912 71.6075 36.6067 71.617 36.5146 71.6199 36.4866 71.6131 36.4333 71.5859 36.4263 71.5402 36.4146 71.6274 36.4395 71.4831 36.401 71.3815 36.374 71.216 36.4874 71.2346 36.4747 71.3732 36.3797 71.1673 36.5433 71.0013 36.5617 70.9135 36.5714 70.8644 36.6539 70.792 36.7222 70.6799 36.8282 70.5935 36.8773 70.4817 36.8937 70.3143 36.9179 70.3085 36.8071 70.1208 36.7566 69.9362 36.7069 69.7409 36.8098 69.6167 36.9225 69.5427 36.9897 69.5687 36.9803 69.3954 37.0428 69.3435 37.0616 69.2077 37.0862 68.9999 37.0129 68.8654 36.9655 68.9572 36.9347 68.6829 36.9347 68.5342 36.9347 68.4912 36.9901 68.2599 36.9082 68.1689 36.876 68.0966 36.8005 68.0607 36.7223M41.4792 31.6667C41.8319 31.6606 42.1467 31.8838 42.2445 32.1248 42.3527 32.3919 42.3167 32.4884 42.3167 32.6662 42.3167 32.8646 42.3052 33.0692 42.2951 33.157 42.2782 33.3019 42.2738 33.3555 42.2951 33.5648 42.3106 33.7171 42.5169 33.7452 42.6487 33.8666 42.7805 33.9881 42.8092 34.2297 42.7401 34.4104 42.6762 34.5223 42.5709 34.5913 42.4659 34.6317 42.3144 34.6901 42.1715 34.7199 42.2219 34.9912 42.2593 35.0199 42.2969 35.0485 42.3344 35.0771 42.614 35.1466 42.9067 35.0445 43.1202 35.0023 43.5822 34.9108 43.8571 34.8697 44.2697 34.841 44.4631 34.8039 44.7429 34.7763 44.9679 34.7569 45.2114 34.8862 45.5357 35.4626 45.348 35.8875 45.0584 36.5328 43.9636 36.9406 43.4956 37.4753 43.348 37.6438 43.1959 37.7723 43.077 37.918 42.8965 38.139 42.721 38.2473 42.492 38.4229 42.3238 38.5515 42.1508 38.6249 42.0208 38.7936 41.9233 38.8579 41.9025 38.9382 41.7849 39.0681 41.6502 39.2171 41.6603 40.1187 41.6672 40.3765 41.6768 40.7374 41.6527 41.0994 41.678 41.4026 41.6833 41.4657 41.743 41.5798 41.7935 41.7526 41.8099 41.809 41.8237 42.0284 41.8223 42.1063 41.8223 42.1063 41.8596 42.3733 41.8019 42.5465 41.7542 42.6893 41.515 42.7641 41.4025 42.864 41.32 42.857 41.1722 42.847 41.0897 42.84 40.8835 42.7457 40.6716 42.5481 40.5027 42.4214 40.2112 42.2031 39.9322 42.2506 39.8772 41.8536 39.8543 41.6885 39.8761 41.7383 39.9228 41.6735 39.9324 41.6601 40.1341 41.6787 40.1492 41.6717 40.4093 41.6748 40.5888 41.6964 40.8247 41.6839 41.0943 41.6695 41.0272 41.4445 41.0561 41.2233 41.0792 41.0458 41.0561 40.9924 41.0464 40.7181 41.0402 40.5423 41.0592 40.3745 40.9391 40.2458 40.9315 40.2458 40.9242 40.2458 40.9165 40.2458 40.3509 40.6568 39.2129 41.7848 38.2387 41.6184 38.2311 41.5469 38.2238 41.4755 38.216 41.404 38.6484 41.1866 38.9557 40.87 39.2962 40.5677 40.0263 39.9194 40.1832 39.783 40.8873 38.9732 40.8961 38.9631 40.8997 38.918 40.8971 38.8224 40.896 38.7783 40.9098 38.6457 40.8923 38.6396 40.7982 38.6069 40.8195 38.6237 40.748 38.6275 40.5595 38.6376 40.6418 38.636 40.3751 38.6588 39.8467 38.7038 39.1408 39.0126 38.8907 38.6685 38.7628 38.4923 38.7889 38.2479 38.7513 38.0333 38.6702 37.8764 38.6098 37.6032 38.4866 37.4415 38.3846 37.3075 38.0967 37.0987 38.0361 36.9643 37.9682 36.8139 38.1059 36.722 38.1485 36.6641 38.6434 36.5206 38.8552 36.7758 39.1879 36.9279 39.3297 36.9928 39.5489 36.9295 39.7147 36.9207 39.9853 36.9062 40.2016 36.8901 40.3486 36.8623 40.8157 36.7739 41.0518 36.7107 41.0427 36.4516 41.0406 36.391 41.0526 36.4194 41.05 36.2531 41.0492 36.2046 41.0476 36.1419 41.0319 36.116 41.0238 36.1025 40.9185 36.0871 40.8731 36.1052 40.6453 36.1964 40.5641 36.2209 40.3715 36.2352 39.8337 36.2748 39.4353 36.3325 39.0833 36.0259 38.9714 35.9285 39.0252 35.7511 39.0328 35.6939 39.0477 35.6725 39.2598 35.6522 39.2854 35.6469 39.9753 35.5034 39.7753 35.5616 40.137 35.4881 40.2912 35.4569 41.0473 35.5046 41.0416 35.2187 41.0381 35.0457 41.0802 34.8256 40.9926 34.7536 40.8007 34.5959 40.7629 34.725 40.5159 34.7312 40.1852 34.7395 39.8228 34.7414 39.4763 34.3264 39.4764 34.1689 39.5045 34.1522 39.5665 34.0689 40.0189 34.0006 40.4424 33.9752 40.7072 33.9364 40.9073 33.9071 41.0453 33.8972 41.0536 33.7488 41.0733 33.3953 41.0622 33.0774 41.068 32.9188 41.0764 32.6886 41.0676 32.7416 40.7144 32.2404 40.6897 32.2053 40.6915 32.0101 40.6915 31.9672 40.7245 31.9233 40.7872 31.8307 40.8371 31.8002 41.0486 31.6827 41.2918 31.7844 41.4792 31.6667L41.4792 31.6667ZM60.0036 34.0158C60.0048 33.9731 60.0132 33.1705 60.0228 33.1401 60.0504 33.0528 60.0504 32.9632 60.0835 32.9296L60.1191 32.8896C60.3912 32.7584 60.5108 32.8742 60.5833 33.0054 60.6526 33.1999 60.6339 33.8795 60.629 34.0351 60.6134 34.5258 60.6193 34.5502 60.6098 34.9108 60.604 35.1345 60.6479 35.6836 60.6532 35.8635 60.6586 36.0493 60.6719 36.1917 60.6917 36.2724 60.7163 36.3731 60.7509 36.4683 60.9131 36.4985 61.274 36.5659 61.5129 36.5009 62.1112 36.2531 62.5875 36.0559 62.7619 36.0584 63.0494 35.82 63.2467 35.6564 63.2561 35.4357 63.3734 35.4195 63.5738 35.3918 63.6232 35.4928 63.6894 35.4928 63.8021 35.6394 64.0892 36.356 64.0118 36.561 63.9619 36.6693 63.9619 36.6693 63.7696 36.7155 63.298 36.829 63.0806 36.8503 62.6502 36.9941 62.4732 37.0532 62.3567 37.0792 62.1738 37.1529 61.8952 37.2651 61.8631 37.2973 61.5396 37.3831 61.0172 37.5217 60.3195 37.5619 60.3119 38.0863 60.3044 38.6014 60.3264 38.4904 60.2493 38.9235 60.2139 39.1227 60.1665 39.3648 60.0864 39.5962 60.0153 39.8015 60.0048 39.9681 59.9028 40.16 59.6134 40.7048 59.5444 40.7927 59.0176 40.9587 58.4777 41.1288 57.7918 41.2618 57.4381 41.0443 57.412 40.9544 57.3996 40.9043 57.4181 40.8015 57.6433 40.5255 58.0457 40.3946 58.3392 40.2297 58.6568 40.0514 58.7939 39.9675 59.0585 39.5633 59.2004 39.3465 59.4496 38.7989 59.5156 38.548 59.5607 38.3766 59.6327 38.1236 59.6402 37.976 59.6492 37.7974 59.6632 37.835 59.6366 37.6422 59.3148 37.4809 58.8685 37.498 58.5053 37.3355 58.3131 37.2492 58.0603 37.0381 57.9497 36.8447 57.7692 36.5296 57.8631 36.8279 57.7355 37.013 57.6834 37.0887 57.6273 36.944 57.5454 36.8735 57.463 36.8026 57.2687 36.7894 57.2423 36.7244 57.2164 36.6607 57.1751 36.5132 57.2278 36.4694 57.3433 36.3732 57.49 36.3636 57.6103 36.4983 57.7565 36.6619 57.8763 36.7567 58.065 36.6282 58.1713 36.5559 58.4546 36.5798 58.5486 36.5813 58.7002 36.5837 58.9988 36.6009 59.1331 36.5958 59.2684 36.5906 59.4165 36.6135 59.5517 36.6042 59.803 36.587 59.8184 36.6372 59.886 36.4434 60.0281 36.0365 59.9791 35.9204 59.9703 35.4663M54.2394 38.7262C54.2842 38.5717 54.3452 38.1392 54.3838 37.913 54.4214 37.6921 54.4478 37.3478 54.4487 37.0445 54.4498 36.6851 54.3539 36.6034 54.2141 36.5995 53.5717 36.5814 53.0035 36.5017 52.4373 36.6129 52.1571 36.6678 52.1224 36.6693 52.0021 36.6982 51.9778 36.704 51.9126 36.7587 51.9137 36.7836 51.9207 36.9586 51.9226 36.8937 51.9251 37.0049 51.9262 37.0598 51.9318 37.3591 51.883 37.3844 51.7676 37.4442 51.4195 37.6063 51.2875 37.8229 51.2301 37.917 51.1756 37.942 51.237 38.0575 51.2654 38.1108 51.4613 38.0533 51.5726 37.9852 51.839 37.8224 51.9559 37.6985 52.288 37.6857 52.3733 37.7474 52.4587 37.8094 52.544 37.8712 52.537 37.9058 52.5297 37.94 52.5227 37.9743 52.3791 38.2125 51.5979 38.2143 51.3119 38.4953 51.3189 38.5571 51.3153 38.6471 51.3128 38.7754 51.3098 38.9271 51.2432 39.0431 51.385 39.1002 51.5885 39.0729 51.6184 38.9524 51.8397 38.9305 51.9039 38.9649 52.0391 38.9465 52.1032 38.981 52.1317 39.0704 52.1317 39.0704 52.0817 39.2121 52.0099 39.4154 51.9822 39.4071 51.9156 39.4393 51.7063 39.5404 51.5094 39.4871 51.313 39.5836 51.2269 40.0474 51.3889 40.6578 51.1843 41.1461 51.0352 41.5022 51.0766 41.5234 50.7879 41.8426 50.6688 41.9742 50.4153 42.1909 50.317 42.171 50.2426 42.1559 50.0199 42.0796 50.0199 41.8871 50.0199 41.6768 50.1015 41.7906 50.2074 41.6896 50.3677 41.5365 50.3895 41.4594 50.4932 41.2158 50.5303 41.1286 50.5411 41.0577 50.5877 40.9104 50.621 40.8051 50.673 40.663 50.666 40.5528 50.689 40.4567 50.6651 40.4277 50.6743 40.2656 50.684 40.0972 50.6057 39.937 50.4686 39.9697 50.287 40.013 50.1614 40.0854 49.8623 40.0996 49.6627 40.1092 49.4062 40.1546 49.2994 40.013 49.2982 39.8803 49.3052 39.8887 49.3499 39.8145 49.7217 39.7259 50.0072 39.6396 50.3278 39.5511 50.4735 39.5108 50.5492 39.5198 50.6336 39.4358 50.6967 39.3731 50.6622 39.3176 50.6598 39.2408 50.6526 39.0075 50.642 38.7761 50.642 38.7761 50.642 38.7761 50.2058 38.9384 49.9706 39.0639 49.7867 39.1621 49.6957 39.2065 49.4798 39.0567 49.3499 38.9665 49.3664 38.9037 49.3932 38.8401 49.451 38.7031 49.4148 38.6742 49.3968 38.4577 49.359 38.004 49.1 38.0511 48.8952 37.8622 48.8549 37.825 48.7761 37.754 48.7905 37.643 48.8275 37.3587 49.2199 37.2071 49.3661 37.0163 49.482 36.8648 49.5212 36.8015 49.6313 36.5919 49.6921 36.4762 49.7548 36.325 49.8081 36.2057 49.9336 35.9253 50.2195 35.4408 50.1834 35.0004 50.1731 34.8758 50.037 34.7226 49.9452 34.701 49.7068 34.6446 49.5998 34.6207 49.4147 34.6829 49.2181 34.749 49.0817 34.8047 48.8699 34.6287 48.6966 34.4848 48.6131 34.3203 48.7447 34.2399 48.951 34.166 49.3417 34.2277 49.541 34.2282 49.8846 34.2291 49.9949 34.2104 50.2447 34.2192 50.3475 34.2228 50.3329 34.1852 50.3367 34.1073 50.3493 33.8493 50.3124 33.3833 50.3439 33.1474 50.3509 33.0945 50.3198 32.9962 50.3688 32.9646 50.4247 32.9285 50.5686 32.8491 50.6363 32.875 50.861 32.9608 51.2855 33.2877 51.076 33.1232 51.0603 33.1107 51.2279 33.217 51.2106 33.3418 51.1696 33.6353 51.0854 33.6509 51.0999 33.8999 51.1124 34.1145 51.1551 34.1715 51.5113 34.0682 51.8043 33.9834 52.1533 33.7864 52.4098 33.7627 52.5216 33.8173 52.574 33.9208 52.536 34.0405 52.4242 34.3941 52.1812 34.4284 51.8395 34.5288 51.6408 34.5871 51.4656 34.6102 51.2911 34.672 51.0621 34.7529 51.0938 34.7189 50.9916 34.8163 50.7679 35.0292 50.7835 35.1988 50.7149 35.4081 50.6295 35.669 50.5411 35.8552 50.4503 36.0865 50.4083 36.1933 50.3511 36.4015 50.3041 36.5159 50.2487 36.6512 50.1091 36.9939 50.0581 37.0704 49.9561 37.223 49.9932 37.1786 49.8993 37.3399 49.862 37.404 49.8641 37.554 49.9379 37.5462 50.1399 37.5245 50.1643 37.5456 50.3151 37.4447 50.4358 37.3639 50.7243 37.1501 50.7715 37.2177 50.8834 37.3783 50.6463 37.5765 50.5261 37.7302 50.4127 37.8752 50.2223 38.0258 50.1833 38.073 50.157 38.1047 50.0851 38.4381 50.276 38.349L50.6989 37.9892C50.9987 37.7969 51.3322 37.1764 51.2441 36.9435 51.168 36.7897 51.1413 36.763 51.1341 36.606 51.1319 36.558 51.1796 36.4654 51.2477 36.4076 51.3073 36.3571 51.4193 36.319 51.4335 36.3119 52.4536 36.1202 52.6307 36.2065 53.556 36.0166 53.7125 36.0166 53.9975 35.9601 54.1526 35.9396 54.6572 35.8729 54.9289 35.7646 55.0861 36.2908 55.2929 36.9837 55.2991 37.2196 55.2304 37.7727 55.1947 38.0594 55.1249 38.3574 55.0412 38.6338 54.9606 38.8998 54.9267 39.0716 54.8743 39.2402 54.8191 39.418 54.7733 39.5866 54.6819 39.8408 54.6082 40.0457 54.5058 40.3457 54.3788 40.6259 54.188 41.0471 54.0041 41.5702 53.4454 41.593 52.9725 41.3668 52.5686 40.9693 52.2564 40.5789 52.213 40.5248 52.1835 40.3762 52.2726 40.3624 52.5523 40.319 53.2295 40.5043 53.4887 40.33 53.741 40.1602 53.8295 39.9422 53.9723 39.5613M70.1846 34.1048C70.3217 34.2178 70.3771 34.2566 70.3771 34.3286 70.3768 34.7348 70.3614 35.3443 70.3338 35.6662 70.3217 35.8066 70.6476 35.5609 70.673 35.4881 70.7264 35.3353 70.8301 35.2254 70.8438 34.9492 70.8536 34.752 70.848 34.6462 70.8486 34.5066 70.8492 34.3589 70.8591 34.2575 70.7428 34.2517L70.5167 34.1843 70.1846 34.1048ZM72.3474 34.3838C72.2121 34.4668 72.2469 34.5044 72.0991 34.6164 72.0329 34.6667 71.8237 34.8322 71.6979 34.8962 71.5802 34.956 71.5927 34.9134 71.5355 34.8349 71.3828 34.7836 71.326 34.8079 71.319 34.9757 71.3094 35.2036 71.2937 35.2211 71.2973 35.3889 71.3006 35.5409 71.2869 35.5638 71.2955 35.7227 71.2971 35.7518 71.3151 36.0637 71.3394 36.08 71.4947 36.1837 71.6848 36.1081 71.8327 36.0897 72.3727 36.0223 72.1441 35.6589 71.9025 35.6326 71.6428 35.6043 71.6138 35.5892 71.6234 35.3151 71.6236 35.3085 71.5838 35.0966 71.6258 35.0246 71.7026 34.893 71.6836 34.9047 71.828 34.8171 71.9047 34.7704 72.0393 34.734 72.0829 34.7979 72.1184 34.85 72.0892 34.9726 72.0926 35.0601 72.0976 35.1965 72.0877 35.4763 72.2153 35.3632 72.3097 35.2795 72.3909 35.0971 72.4799 34.8629 72.5571 34.6598 72.5843 34.6045 72.5732 34.44 72.5677 34.3607 72.5138 34.3562 72.4793 34.3499L72.3474 34.3838ZM42.9421 35.7528C42.5374 35.8069 41.9028 35.6036 41.9606 36.2724 41.9807 36.5057 42.1225 36.4419 42.2637 36.4361 42.4859 36.4268 42.7061 36.3885 42.805 36.4817 42.8555 36.5293 42.8903 36.6407 42.8916 36.7439 42.8932 36.8665 42.7863 36.9961 42.7545 37.0279 42.6992 37.0832 42.6215 37.0462 42.5428 37.0471 42.2521 37.0506 41.9515 36.9747 41.9702 37.2203 41.9928 37.5164 41.9847 37.8735 42.344 37.5957 42.6998 37.3205 43.7173 36.4582 43.9545 36.0659 44.0797 35.859 44.0679 35.6821 44.0151 35.6518 43.8773 35.5838 43.6928 35.6181 43.4619 35.6663L42.9421 35.7528ZM66.7926 36.6861C67.014 36.6043 67.1917 37.0318 67.216 37.1913 67.2809 37.6176 67.1846 37.9143 66.9724 38.4796 66.846 38.8161 65.971 39.0917 65.9458 38.8032 65.8784 38.0334 66.2897 37.9862 66.4448 37.5206 66.533 37.2564 66.5402 37.0747 66.6387 36.8787L66.7926 36.6861ZM40.6494 37.3501C40.0793 37.4043 39.888 37.2671 39.7329 37.48 39.6572 37.5839 39.6096 37.728 39.6138 37.8193 39.6198 37.9524 39.5955 38.1289 39.7726 38.1477 40.1301 38.1857 40.285 38.1766 40.7072 38.1332 40.9251 38.1109 41.0066 38.0214 41.0445 37.7891 41.0619 37.6818 41.0427 37.6713 41.0475 37.4896 41.0484 37.4561 41.0655 37.3604 41.0103 37.3537L40.6494 37.3501ZM47.6357 37.4336C47.707 37.4336 47.7848 37.4038 47.8498 37.4336 48.0037 37.5041 48.1769 37.8409 48.2058 38.0141 48.2915 38.5284 48.2273 38.672 48.2131 38.9163 48.1973 39.186 48.216 39.2424 48.2347 39.395 48.2708 39.6885 48.4263 39.8259 48.4215 39.9826 48.4127 40.2658 48.4705 40.2322 48.2444 40.6026 48.1674 40.7288 48.0187 40.5875 47.9653 40.5064 47.8428 40.3204 47.8428 40.3204 47.7249 40.1322 47.5637 39.8747 47.2869 39.7884 47.4023 39.241 47.5177 38.6939 47.5192 39.0553 47.5178 38.6396 47.5162 38.1595 47.3613 37.7436 47.6357 37.4336L47.6357 37.4336ZM61.8686 39.0212C61.9426 38.9908 62.1447 39.0485 62.2939 39.1255 62.4296 39.1955 62.4657 39.2599 62.6114 39.3564 62.7093 39.4211 62.7986 39.4701 62.9049 39.52 63.0589 39.5922 63.1339 39.6593 63.1935 39.7366 63.3565 39.8503 63.4613 39.96 63.5784 40.1142 63.7029 40.2778 63.8173 40.4752 63.9104 40.6772 63.9791 40.8261 64.1196 41.1996 64.0259 41.4927 64.0104 41.5413 63.8275 41.6782 63.7943 41.717 63.7279 41.7104 63.6616 41.7041 63.5952 41.6975 63.2454 41.5322 62.799 41.3197 62.6185 40.9877 62.4728 40.7195 62.3933 40.2958 62.2577 39.8978M42.9589 39.8833C43.5926 39.9896 43.994 40.156 44.472 40.2898 45.0011 40.4376 45.2334 40.5293 45.2612 40.9057 45.2821 41.1903 45.2133 41.355 45.0085 41.7092 44.8244 42.0278 44.6578 41.9717 44.5268 41.9203 44.4496 41.8899 44.4083 41.8368 44.3517 41.7633 44.2074 41.5756 44.212 41.2501 44.2002 41.1967 44.128 40.872 43.3857 40.6349 42.9729 40.3841 42.7518 40.2498 42.502 40.1577 42.6497 39.9139 42.6631 39.9076 42.7024 39.8595 42.8554 39.8687L42.9589 39.8833ZM70.8462 40.9924C70.6635 40.989 70.56 40.9538 70.2952 41.002 70.0256 41.051 69.9512 41.1416 69.742 41.3292 69.3856 41.6486 69.8058 42.5852 70.3626 42.4118 70.6199 42.3317 70.9256 42.1135 70.9881 41.6804 71.009 41.5355 70.9954 41.1968 70.9954 40.9996L70.8462 40.9924Z" fill="#FFFFFF" fill-rule="evenodd" transform="matrix(1 0 0 1.0087 1057 504)"/><path d="M48.177 66.9455 48.5942 66.9455 48.5942 61.1539C54.2506 61.1539 59.9075 61.1539 65.5645 61.1539L65.5645 66.9455 66.2825 66.9503 66.2777 67.734 47.8016 67.7203 47.8088 66.9445 48.177 66.9455ZM47.869 68.4293 66.3066 68.4293 66.3066 69.9295 47.869 69.9295 47.869 68.4293 47.869 68.4293ZM65.6714 70.6205 65.6714 74.8158 63.6723 74.8158 63.6795 71.9783 61.4277 71.9727 61.4277 74.8157 58.1945 74.8157 58.1946 71.9758 56.0293 72.0071 56.0438 74.8158 52.695 74.8158 52.6942 71.9792 50.5443 72.0216 50.5587 74.8158 48.5427 74.8158 48.5427 70.6205C54.2517 70.6205 59.9618 70.6205 65.6714 70.6205L65.6714 70.6205ZM65.595 58.3423 57.1171 55.4965 48.6392 58.3423 65.595 58.3423 65.595 58.3423ZM55.3302 62.3542 55.3302 66.8833 58.6889 66.8833 58.6889 62.3542 55.3302 62.3542 55.3302 62.3542ZM53.7923 66.8833 53.7923 62.3542 50.4336 62.3542 50.4336 66.8833 53.7923 66.8833 53.7923 66.8833ZM60.3424 62.3542 60.3424 66.8833 63.701 66.8833 63.701 62.3542 60.3424 62.3542 60.3424 62.3542ZM48.6392 59.091 65.595 59.091 65.595 60.3534 48.6392 60.3534 48.6392 59.091 48.6392 59.091Z" fill="#FFFFFF" fill-rule="evenodd" transform="matrix(1 0 0 1.0087 1057 504)"/><path d="M30.8857 84.0175C30.8857 84.6631 30.3623 85.1866 29.7166 85.1866 29.071 85.1866 28.5476 84.6631 28.5476 84.0175 28.5476 83.3718 29.071 82.8484 29.7166 82.8484 30.3623 82.8484 30.8857 83.3718 30.8857 84.0175Z" fill="#F2F2F2" fill-rule="evenodd" transform="matrix(1 0 0 1.0087 1057 504)"/><path d="M18.2901 72.1036 20.2781 71.2416 20.352 71.4237C19.8834 71.7135 19.5638 72.0887 19.3933 72.5489 19.223 73.0091 19.2169 73.4347 19.3753 73.8256 19.4976 74.1277 19.6752 74.3341 19.9078 74.4449 20.1407 74.5558 20.3622 74.5687 20.5724 74.4834 20.7057 74.4295 20.8116 74.3504 20.8899 74.2463 20.9945 74.1039 21.0765 73.9105 21.1358 73.6658 21.1772 73.4872 21.2203 73.0956 21.2653 72.4914 21.3264 71.6461 21.461 71.0384 21.6694 70.6678 21.8792 70.3003 22.1823 70.0361 22.5792 69.8754 23.0825 69.6715 23.5952 69.6922 24.1168 69.9377 24.6385 70.1832 25.0217 70.608 25.2663 71.2122 25.3432 71.4018 25.3963 71.5886 25.4262 71.7731 25.4561 71.9575 25.4692 72.1987 25.4658 72.4966 25.4641 72.6626 25.4819 72.7916 25.5191 72.8834 25.5503 72.9606 25.6129 73.0299 25.7069 73.0917 25.801 73.1536 25.9192 73.1868 26.0624 73.1908L26.1291 73.3553 23.8546 74.2764 23.7879 74.112C24.3749 73.7227 24.7612 73.2741 24.9468 72.7661 25.1324 72.2583 25.1383 71.7899 24.9644 71.3604 24.83 71.0287 24.6327 70.801 24.3723 70.6773 24.112 70.5534 23.8618 70.5402 23.6219 70.6372 23.4796 70.6949 23.3573 70.7884 23.2546 70.918 23.152 71.0475 23.0717 71.2134 23.0141 71.4159 22.9566 71.6187 22.9107 71.9542 22.8764 72.4232 22.829 73.0802 22.7589 73.567 22.6665 73.8837 22.5742 74.2004 22.437 74.4704 22.2552 74.6941 22.0735 74.9178 21.842 75.0864 21.5606 75.2003 21.0808 75.3948 20.6007 75.384 20.1205 75.1682 19.6401 74.9525 19.2914 74.5767 19.0743 74.0406 18.9952 73.8453 18.9422 73.6461 18.9151 73.4432 18.8942 73.2896 18.8915 73.0934 18.9067 72.8544 18.922 72.6156 18.9134 72.4562 18.881 72.3763 18.8497 72.2992 18.8017 72.2482 18.7362 72.2229 18.6708 72.1976 18.54 72.2024 18.3438 72.237L18.2901 72.1036Z" fill="#FFFFFF" transform="matrix(1 0 0 1.0087 1057 504)"/><path d="M16.5963 65.1703C16.3863 64.156 16.544 63.2762 17.0695 62.5313 17.5952 61.7864 18.3337 61.3336 19.2851 61.1731 20.0979 61.0359 20.8533 61.1531 21.5511 61.5247 22.4767 62.0165 23.0364 62.8375 23.2304 63.9875 23.4251 65.1406 23.185 66.0982 22.5098 66.8602 21.9765 67.4621 21.286 67.8346 20.4383 67.9777 19.4869 68.1383 18.6391 67.9484 17.8949 67.4082 17.151 66.8677 16.718 66.1218 16.5963 65.1703ZM16.8892 65.0624C16.9881 65.6484 17.3629 66.0438 18.0129 66.2483 18.5462 66.4142 19.273 66.4196 20.193 66.2643 21.2863 66.0798 22.062 65.7513 22.5202 65.2786 22.8405 64.9492 22.9598 64.5434 22.8785 64.0613 22.8237 63.7369 22.6994 63.4791 22.5049 63.2883 22.2566 63.0451 21.8979 62.8837 21.4293 62.8039 20.9606 62.7243 20.3701 62.7445 19.6581 62.8648 18.8106 63.0078 18.19 63.1935 17.796 63.422 17.402 63.6508 17.1389 63.9017 17.0069 64.1749 16.8748 64.4485 16.8355 64.7442 16.8892 65.0624Z" fill="#FFFFFF" transform="matrix(1 0 0 1.0087 1057 504)"/><path d="M15.97 58.5535 16.1983 55.2065 16.3754 55.2185 16.3639 55.3859C16.3466 55.6377 16.3611 55.8125 16.4075 55.91 16.4537 56.0077 16.5216 56.0795 16.6114 56.1257 16.7012 56.1719 16.9308 56.2075 17.3006 56.2327L20.4755 56.4493C21.0557 56.4888 21.4427 56.4713 21.6368 56.3964 21.831 56.3216 21.9968 56.188 22.1348 55.9956 22.2728 55.8033 22.3523 55.5541 22.3731 55.2481 22.3971 54.8975 22.3386 54.5932 22.1976 54.3353 22.0566 54.0776 21.8517 53.8779 21.5827 53.7362 21.3137 53.5945 20.8351 53.5002 20.1465 53.4533L17.5024 53.273C17.2124 53.2532 17.0031 53.2694 16.8746 53.3215 16.7462 53.3736 16.655 53.4442 16.6008 53.5334 16.5177 53.6719 16.4672 53.8719 16.4493 54.1332L16.2722 54.1211 16.4254 51.8785 16.6023 51.8906 16.5933 52.0244C16.5808 52.2061 16.6072 52.3601 16.6722 52.4863 16.7372 52.6124 16.8413 52.7076 16.9841 52.7717 17.0833 52.8201 17.2653 52.8533 17.5298 52.8714L19.9921 53.0394C20.754 53.0914 21.3005 53.179 21.6315 53.3025 21.9625 53.426 22.2566 53.6919 22.5139 54.1 22.771 54.5084 22.8767 55.0488 22.8307 55.7213 22.7925 56.2824 22.688 56.7108 22.5173 57.0065 22.2848 57.4104 22.0033 57.6872 21.6727 57.8377 21.3422 57.9881 20.9077 58.0449 20.3688 58.0082L17.1938 57.7915C16.8209 57.7661 16.5876 57.7712 16.494 57.8063 16.4004 57.8414 16.3228 57.9083 16.2618 58.0066 16.2006 58.105 16.1623 58.2913 16.1468 58.5656L15.97 58.5535Z" fill="#FFFFFF" transform="matrix(1 0 0 1.0087 1057 504)"/><path d="M18.6947 43.3039 20.3792 43.8094 20.3298 43.9747C19.9116 43.956 19.5999 43.9808 19.3941 44.0492 19.1885 44.1175 19.0038 44.2407 18.8404 44.4183 18.7504 44.5181 18.6618 44.7134 18.5747 45.0041L18.4355 45.4677 23.237 46.9089C23.5553 47.0044 23.7595 47.0465 23.8497 47.0351 23.9397 47.0239 24.0301 46.9759 24.1205 46.8913 24.2109 46.8068 24.2828 46.6757 24.336 46.4981L24.3981 46.2916 24.568 46.3425 23.5897 49.6017 23.4198 49.5508 23.4818 49.3442C23.5361 49.1638 23.5475 49.0087 23.5163 48.8792 23.4973 48.7867 23.4428 48.702 23.3523 48.6248 23.2891 48.5691 23.1013 48.4944 22.7892 48.4008L17.9876 46.9596 17.8527 47.4095C17.7269 47.8288 17.7242 48.1598 17.8446 48.4028 18.0125 48.7435 18.3154 49.018 18.7535 49.2261L18.7012 49.4006 17.0165 48.8949 18.6947 43.3039Z" fill="#FFFFFF" transform="matrix(1 0 0 1.0087 1057 504)"/><path d="M24.0229 39.9459 25.7652 40.9538C26.053 41.1202 26.2419 41.2083 26.3321 41.2181 26.4224 41.228 26.5213 41.2021 26.6289 41.1406 26.7364 41.0793 26.8358 40.9696 26.927 40.812L27.035 40.6254 27.1885 40.7142 25.4869 43.6555 25.3334 43.5668 25.4414 43.3801C25.5357 43.217 25.5829 43.0688 25.5823 42.9355 25.5852 42.8412 25.5508 42.7476 25.4792 42.6545 25.4304 42.5856 25.265 42.4695 24.9829 42.3064L21.2823 40.1656C20.9946 39.9992 20.8061 39.9104 20.7166 39.8993 20.6271 39.8881 20.5285 39.9133 20.421 39.9747 20.3134 40.0363 20.2142 40.1457 20.1229 40.3034L20.0149 40.4901 19.8614 40.4013 21.5629 37.4599 21.7166 37.5488 21.6085 37.7355C21.5142 37.8986 21.4672 38.0468 21.4676 38.18 21.4647 38.2745 21.4985 38.3695 21.5683 38.4654 21.6172 38.5342 21.7826 38.6502 22.0648 38.8134L23.6579 39.7348 24.8073 37.7477 23.2143 36.826C22.9266 36.6598 22.7381 36.571 22.6485 36.5597 22.5589 36.5485 22.46 36.5744 22.3518 36.6372 22.2435 36.7001 22.1437 36.8103 22.0525 36.968L21.9468 37.1505 21.7934 37.0617 23.4925 34.1246 23.646 34.2134 23.5403 34.396C23.4444 34.5619 23.3975 34.7102 23.3995 34.8406 23.3966 34.935 23.4303 35.03 23.5002 35.1259 23.5491 35.1948 23.7145 35.3107 23.9965 35.4739L27.697 37.6145C27.9849 37.7809 28.1733 37.8698 28.2628 37.8808 28.3524 37.8921 28.4513 37.8662 28.5596 37.8033 28.6678 37.7405 28.7677 37.6302 28.8589 37.4726L28.9647 37.2901 29.1182 37.3788 27.4189 40.3161 27.2653 40.2273 27.371 40.0447C27.467 39.8788 27.5139 39.7306 27.5119 39.6002 27.5147 39.5059 27.4813 39.4108 27.4111 39.315 27.3622 39.2461 27.1969 39.1301 26.9148 38.9669L25.1724 37.9589 24.0229 39.9459Z" fill="#FFFFFF" transform="matrix(1 0 0 1.0087 1057 504)"/><path d="M27.2786 30.2613 29.2007 32.0791 29.2898 31.985C29.5729 31.6856 29.6842 31.3797 29.6236 31.0671 29.5628 30.7546 29.3666 30.4064 29.0349 30.0223L29.16 29.8899 31.6324 32.2281 31.5073 32.3604C31.2118 32.1336 30.9356 31.9837 30.6794 31.9105 30.423 31.8375 30.2093 31.8321 30.0381 31.8945 29.8669 31.9569 29.6748 32.1008 29.4619 32.3259L30.792 33.5839C31.0521 33.8297 31.2215 33.9692 31.3005 34.002 31.3793 34.0349 31.466 34.0387 31.5602 34.0134 31.6543 33.9882 31.7651 33.9083 31.8924 33.7736L32.1592 33.4915C32.5763 33.0505 32.8084 32.6005 32.8554 32.1414 32.9025 31.6824 32.7721 31.1973 32.464 30.6861L32.5859 30.5572 33.8856 32.1889 30.0261 36.27 29.8973 36.1481 30.0454 35.9914C30.175 35.8545 30.255 35.7211 30.2852 35.5914 30.3098 35.5003 30.2981 35.4012 30.2498 35.294 30.2182 35.2158 30.0841 35.0647 29.8473 34.8408L26.7411 31.9032C26.5276 31.7013 26.3908 31.5831 26.3313 31.5486 26.228 31.495 26.1247 31.4787 26.0212 31.4996 25.8729 31.5264 25.7261 31.6163 25.5814 31.7696L25.433 31.9264 25.3042 31.8045 29.0419 27.8523 30.4384 29.1727 30.3131 29.3049C29.9083 29.0496 29.5739 28.9127 29.3101 28.8939 29.0463 28.8753 28.7741 28.9445 28.4937 29.1014 28.3289 29.1919 28.0775 29.4159 27.7396 29.7733L27.2786 30.2613Z" fill="#FFFFFF" transform="matrix(1 0 0 1.0087 1057 504)"/><path d="M37.5668 27.1444 35.6535 28.4131 35.7754 29.0913C35.8175 29.3164 35.8765 29.4864 35.9524 29.6008 36.0531 29.7526 36.1884 29.8238 36.3587 29.8145 36.4588 29.8094 36.6571 29.7241 36.9533 29.5582L37.0513 29.7059 35.2499 30.9004 35.1519 30.7527C35.3269 30.5945 35.4333 30.408 35.4709 30.1932 35.5087 29.9784 35.4826 29.6037 35.3926 29.0692L34.4639 23.4627 34.5398 23.4123 39.4384 26.5589C39.9038 26.856 40.2326 27.0194 40.4247 27.0491 40.57 27.0716 40.7297 27.0348 40.9036 26.9386L41.0017 27.0864 38.3814 28.8239 38.2834 28.6761 38.3912 28.6046C38.6015 28.4651 38.73 28.3378 38.7763 28.2227 38.8066 28.1413 38.7953 28.0605 38.7424 27.9807 38.7105 27.9328 38.6699 27.8888 38.6204 27.8488 38.5992 27.8285 38.4931 27.7551 38.3019 27.6287L37.5668 27.1444ZM37.2349 26.9388 35.1912 25.6085 35.5974 28.0248 37.2349 26.9388Z" fill="#FFFFFF" transform="matrix(1 0 0 1.0087 1057 504)"/><path d="M43.992 18.7417 44.8232 20.743 44.64 20.8139C44.3575 20.3409 43.9874 20.0156 43.53 19.838 43.0724 19.6606 42.647 19.6479 42.2537 19.8002 41.9496 19.9179 41.7404 20.0923 41.6261 20.3232 41.5118 20.5543 41.4954 20.7755 41.5774 20.9871 41.6291 21.1212 41.7066 21.2284 41.8096 21.3083 41.9502 21.4149 42.1424 21.4999 42.3862 21.563 42.5641 21.6071 42.955 21.6563 43.5584 21.7105 44.4026 21.7846 45.0083 21.9287 45.3754 22.1429 45.7397 22.3583 45.9992 22.6655 46.1537 23.0647 46.3498 23.5713 46.321 24.0835 46.0675 24.6013 45.8141 25.1192 45.3834 25.4957 44.7755 25.7311 44.5847 25.8049 44.3971 25.8553 44.2122 25.8823 44.0273 25.9092 43.7859 25.9188 43.4883 25.9107 43.3223 25.9066 43.1929 25.9223 43.1007 25.9581 43.0231 25.988 42.9528 26.0495 42.8894 26.1426 42.826 26.2357 42.7912 26.3536 42.7849 26.4965L42.6194 26.5606 41.7337 24.2721 41.899 24.2081C42.2793 24.801 42.7217 25.1942 43.2267 25.3876 43.7315 25.5811 44.2001 25.5941 44.632 25.4269 44.9658 25.2978 45.1965 25.1039 45.3244 24.8455 45.4521 24.5871 45.4693 24.3371 45.3758 24.0957 45.3205 23.9527 45.2288 23.8288 45.101 23.7241 44.9731 23.6195 44.8082 23.5367 44.6066 23.4759 44.4051 23.4153 44.07 23.3643 43.6018 23.3228 42.9455 23.265 42.4598 23.1875 42.1447 23.0902 41.8296 22.9931 41.5616 22.8517 41.3408 22.6665 41.1201 22.4813 40.9549 22.2472 40.8453 21.964 40.6585 21.4814 40.6766 21.0016 40.8997 20.5246 41.1229 20.0477 41.504 19.7049 42.0434 19.496 42.24 19.42 42.4399 19.37 42.6431 19.3461 42.7971 19.3277 42.9934 19.3279 43.2319 19.3469 43.4706 19.3659 43.63 19.3598 43.7106 19.3287 43.788 19.2987 43.84 19.2513 43.8661 19.1862 43.8923 19.1214 43.8897 18.9905 43.8579 18.7937L43.992 18.7417Z" fill="#FFFFFF" transform="matrix(1 0 0 1.0087 1057 504)"/><path d="M53.3068 16.9003 53.5845 18.6371 53.4141 18.6644C53.2489 18.2798 53.091 18.0098 52.94 17.8543 52.7889 17.6988 52.5978 17.5862 52.3667 17.5164 52.2376 17.4788 52.0233 17.484 51.7237 17.5319L51.2456 17.6083 52.0373 22.5585C52.0898 22.8867 52.1407 23.0889 52.1901 23.1651 52.2396 23.2413 52.322 23.3017 52.4375 23.3463 52.553 23.391 52.7022 23.3986 52.8853 23.3695L53.0982 23.3353 53.1261 23.5104 49.7662 24.0477 49.7381 23.8727 49.9511 23.8387C50.1372 23.809 50.2817 23.7518 50.3846 23.6674 50.4596 23.6101 50.5123 23.524 50.5424 23.4092 50.5648 23.3279 50.5506 23.1263 50.4989 22.8046L49.7073 17.8544 49.2436 17.9286C48.8112 17.9977 48.512 18.1395 48.3457 18.3536 48.112 18.6531 47.9968 19.0452 47.9999 19.5302L47.8201 19.5589 47.5424 17.8221 53.3068 16.9003Z" fill="#FFFFFF" transform="matrix(1 0 0 1.0087 1057 504)"/><text fill="#FFFFFF" font-family="Microsoft YaHei,Microsoft YaHei_MSFontService,sans-serif" font-weight="400" font-size="49" transform="matrix(0.112228 0 0 0.116 1131.77 575)"></text><path d="M60.4879 16.965 63.7914 17.5494 63.7606 17.7239 63.5954 17.6948C63.3468 17.6509 63.1716 17.6465 63.0696 17.682 62.9675 17.7174 62.8887 17.7774 62.8332 17.8617 62.7778 17.9458 62.7178 18.1705 62.6533 18.5356L62.099 21.6693C61.9975 22.242 61.9737 22.6285 62.0274 22.8294 62.0811 23.0304 62.1963 23.2097 62.3729 23.3676 62.5493 23.5253 62.7886 23.6308 63.0907 23.6842 63.4368 23.7455 63.7454 23.7197 64.0169 23.6073 64.2882 23.4946 64.5088 23.3121 64.6784 23.0599 64.8479 22.8076 64.9928 22.3416 65.113 21.6621L65.5747 19.0522C65.6252 18.7659 65.6315 18.5561 65.5937 18.4229 65.5554 18.2896 65.4949 18.1912 65.4121 18.128 65.2832 18.0306 65.0898 17.9589 64.8319 17.9134L64.8628 17.7387 67.0762 18.1303 67.0452 18.305 66.9131 18.2815C66.7338 18.2498 66.578 18.2597 66.4456 18.3107 66.3131 18.3621 66.2076 18.4553 66.1284 18.5905 66.0697 18.684 66.0174 18.8612 65.971 19.1223L65.5411 21.5528C65.4081 22.3049 65.2626 22.8387 65.1045 23.1547 64.9464 23.4708 64.6506 23.7348 64.2173 23.9469 63.7841 24.159 63.2353 24.2063 62.5715 24.089 62.0177 23.991 61.6029 23.8414 61.327 23.64 60.9504 23.3659 60.7049 23.0564 60.5909 22.7117 60.4767 22.367 60.4665 21.9286 60.5605 21.397L61.1148 18.2633C61.1801 17.8952 61.1999 17.6627 61.1751 17.5659 61.15 17.4689 61.0918 17.3849 61.0007 17.3136 60.9094 17.2423 60.7283 17.1843 60.4571 17.1396L60.4879 16.965Z" fill="#FFFFFF" transform="matrix(1 0 0 1.0087 1057 504)"/><path d="M71.547 19.706 72.9529 24.6608 74.0295 22.0823C74.1797 21.7227 74.2296 21.4578 74.1792 21.2881 74.1093 21.058 73.9063 20.8763 73.5708 20.743L73.6391 20.5793 75.6204 21.4066 75.5521 21.5703C75.285 21.4969 75.0971 21.4678 74.9886 21.4831 74.8802 21.4983 74.7771 21.5541 74.68 21.6502 74.5827 21.7463 74.4749 21.9359 74.3568 22.219L72.2721 27.2122 72.1217 27.1494 70.151 20.4628 68.5592 24.2752C68.4151 24.6203 68.3968 24.8861 68.504 25.0728 68.6114 25.2597 68.7667 25.3955 68.9702 25.4804L69.1117 25.5395 69.0434 25.7031 66.9161 24.815 66.9845 24.6512C67.3158 24.7863 67.5742 24.8144 67.7594 24.7359 67.9445 24.6575 68.1036 24.4588 68.2364 24.1404L70.0037 19.908 69.942 19.6952C69.8816 19.483 69.8133 19.3316 69.7369 19.2408 69.6604 19.1501 69.5321 19.0636 69.3519 18.9814L69.4201 18.8178 71.547 19.706Z" fill="#FFFFFF" transform="matrix(1 0 0 1.0087 1057 504)"/><path d="M77.0675 29.7609 76.9718 29.9103 74.1096 28.0788 74.2051 27.9295 74.3868 28.0457C74.5456 28.1474 74.6917 28.2008 74.8246 28.2063 74.9188 28.2134 75.0138 28.1832 75.1102 28.1158 75.1811 28.0702 75.3044 27.9101 75.4799 27.6356L77.7843 24.0346C77.9632 23.7548 78.0604 23.5704 78.0754 23.4813 78.0906 23.3926 78.07 23.2929 78.0135 23.1827 77.9569 23.0725 77.852 22.9683 77.6985 22.8702L77.5168 22.754 77.6124 22.6045 80.4746 24.436 80.379 24.5852 80.1973 24.469C80.0385 24.3674 79.8925 24.3139 79.7595 24.3084 79.6654 24.3013 79.5689 24.3306 79.4702 24.3963 79.3991 24.4419 79.2758 24.6021 79.1003 24.8765L76.7961 28.4776C76.6169 28.7575 76.5204 28.9423 76.5066 29.0322 76.4928 29.122 76.5143 29.2218 76.5708 29.3321 76.6274 29.4422 76.7324 29.5464 76.8859 29.6444L77.0675 29.7609Z" fill="#FFFFFF" transform="matrix(1 0 0 1.0087 1057 504)"/><path d="M87.3992 30.3558 87.2788 30.486C87.0791 30.3535 86.8385 30.3031 86.5572 30.3345 86.3502 30.3608 85.9488 30.5008 85.3527 30.7549L80.3387 32.8814 80.2226 32.774 82.0934 27.4675C82.3192 26.8277 82.4355 26.4372 82.4426 26.2955 82.4493 26.1539 82.37 25.9869 82.204 25.7946L82.3243 25.6643 84.612 27.7791 84.4916 27.9093 84.4142 27.8378C84.2076 27.6469 84.043 27.5426 83.9203 27.5247 83.8337 27.51 83.7591 27.5366 83.6962 27.6048 83.6573 27.647 83.6204 27.7054 83.5861 27.7803 83.5517 27.8553 83.4725 28.068 83.3484 28.4189L82.1693 31.7345 85.0676 30.4914C85.4168 30.3398 85.6443 30.2325 85.7504 30.1694 85.8564 30.1065 85.9377 30.0445 85.9941 29.9834 86.0592 29.9131 86.0978 29.8335 86.1104 29.7449 86.1225 29.6563 86.1054 29.5643 86.0587 29.4688 85.9947 29.3356 85.8794 29.1921 85.7128 29.038L85.8331 28.9078 87.3992 30.3558Z" fill="#FFFFFF" transform="matrix(1 0 0 1.0087 1057 504)"/><path d="M90.0605 34.4391 87.8912 35.9533 87.9653 36.0595C88.2012 36.3974 88.4783 36.5682 88.7965 36.5721 89.115 36.5759 89.4956 36.4544 89.9388 36.2072L90.043 36.3565 87.2529 38.3042 87.1487 38.155C87.4306 37.9114 87.6332 37.6715 87.7567 37.4353 87.8801 37.1992 87.9286 36.9908 87.9022 36.8105 87.8758 36.6303 87.7738 36.4131 87.5964 36.1589L86.0952 37.2068C85.8017 37.4117 85.6309 37.5495 85.583 37.62 85.5347 37.6905 85.5134 37.7747 85.5191 37.8721 85.5247 37.9695 85.5806 38.094 85.6867 38.2462L85.9089 38.5644C86.2562 39.0621 86.65 39.3806 87.09 39.5196 87.53 39.6586 88.0314 39.629 88.5946 39.4309L88.6961 39.5763 86.835 40.5189 83.6198 35.9131 83.7652 35.8116 83.8886 35.9884C83.9964 36.1429 84.111 36.2482 84.2318 36.3043 84.316 36.3467 84.4154 36.3551 84.5301 36.3297 84.6133 36.3146 84.7883 36.2138 85.0556 36.0273L88.5611 33.5803C88.802 33.4119 88.9456 33.3021 88.9914 33.2506 89.0647 33.1604 89.1017 33.0627 89.1022 32.957 89.106 32.8063 89.0476 32.6444 88.9268 32.4716L88.8033 32.2948 88.9488 32.1933 92.0625 36.6538 90.4865 37.7537 90.3823 37.6045C90.7143 37.2596 90.9163 36.9599 90.9878 36.7053 91.0596 36.4507 91.047 36.1702 90.9499 35.8638 90.8946 35.6841 90.7262 35.3926 90.4445 34.989L90.0605 34.4391Z" fill="#FFFFFF" transform="matrix(1 0 0 1.0087 1057 504)"/><path d="M91.3594 43.001 89.6777 43.7003C89.3531 43.8353 89.1572 43.9402 89.0897 44.0149 89.0221 44.0897 88.984 44.1876 88.9757 44.3088 88.9672 44.4299 89.0201 44.6277 89.1343 44.9021L88.9705 44.9702 87.6933 41.8991 87.8571 41.8309C87.9723 42.1083 88.0764 42.2858 88.1692 42.3629 88.2619 42.4404 88.3578 42.4818 88.457 42.4873 88.5561 42.4928 88.768 42.4281 89.0926 42.2931L92.9869 40.6736C93.3113 40.5387 93.5074 40.4338 93.575 40.359 93.6424 40.2843 93.6803 40.1863 93.6888 40.065 93.6972 39.9438 93.6445 39.7461 93.5303 39.4717L93.694 39.4036 94.8536 42.1915C95.1553 42.9174 95.326 43.4691 95.3655 43.8471 95.405 44.2252 95.334 44.5766 95.1524 44.9012 94.9709 45.2259 94.6987 45.4637 94.3357 45.6147 93.8932 45.7986 93.461 45.7915 93.0396 45.5931 92.7718 45.4656 92.5163 45.2378 92.2727 44.9102L90.8414 47.1975C90.6574 47.4955 90.5495 47.6979 90.5178 47.8045 90.4766 47.9635 90.4847 48.1245 90.5422 48.2874L90.3785 48.3556 89.5927 46.466 91.5233 43.3948 91.3594 43.001ZM94.3021 41.7772 91.6736 42.8703 91.7785 43.1226C91.949 43.5326 92.114 43.8238 92.2741 43.9961 92.434 44.1683 92.6362 44.272 92.881 44.307 93.1255 44.3419 93.4056 44.2938 93.7213 44.1625 94.1786 43.9724 94.4719 43.7249 94.6014 43.4202 94.7306 43.1155 94.6967 42.7256 94.4992 42.2507L94.3021 41.7772Z" fill="#FFFFFF" transform="matrix(1 0 0 1.0087 1057 504)"/><path d="M97.8846 52.2537 95.7684 52.7194 95.7308 52.5265C96.2462 52.3318 96.6317 52.0249 96.887 51.6057 97.1423 51.1865 97.2296 50.77 97.1491 50.3559 97.0869 50.0361 96.952 49.7995 96.7447 49.6461 96.5375 49.4928 96.3225 49.4378 96.0998 49.4811 95.9586 49.5084 95.8398 49.5658 95.7427 49.6531 95.6129 49.7727 95.4955 49.9469 95.3904 50.1759 95.3156 50.3433 95.1983 50.7194 95.0386 51.3038 94.8169 52.1216 94.5684 52.6925 94.2927 53.0163 94.0166 53.3369 93.6684 53.5382 93.2483 53.6199 92.7151 53.7238 92.2159 53.6053 91.751 53.2645 91.2859 52.9236 90.9912 52.4335 90.8665 51.7936 90.8274 51.5929 90.811 51.3992 90.8168 51.2124 90.8228 51.0259 90.8559 50.7866 90.9164 50.4948 90.9498 50.3321 90.957 50.202 90.9382 50.1048 90.9223 50.0233 90.8742 49.9433 90.7937 49.8645 90.7132 49.7857 90.6034 49.7307 90.4638 49.6991L90.43 49.5249 92.8385 49.0562 92.8725 49.2303C92.2219 49.5002 91.7569 49.8664 91.4776 50.3293 91.1982 50.7922 91.1027 51.2509 91.1913 51.7056 91.2596 52.057 91.4097 52.3184 91.6416 52.4897 91.8736 52.6609 92.1166 52.7219 92.3706 52.6724 92.5212 52.6431 92.6592 52.5748 92.785 52.4673 92.9105 52.3598 93.0208 52.2122 93.1163 52.0245 93.2115 51.8366 93.3206 51.5159 93.444 51.0623 93.6164 50.4265 93.7783 49.962 93.9295 49.6691 94.0809 49.376 94.2671 49.1371 94.4884 48.9523 94.7095 48.7677 94.969 48.6464 95.2671 48.5883 95.7752 48.4894 96.2443 48.5919 96.6744 48.8955 97.1047 49.1991 97.3749 49.6348 97.4853 50.2025 97.5257 50.4094 97.5396 50.6151 97.5273 50.8192 97.5183 50.974 97.4836 51.1672 97.4229 51.3986 97.3621 51.6302 97.3399 51.7882 97.3564 51.873 97.3723 51.9545 97.4099 52.0138 97.4692 52.0512 97.5287 52.0885 97.6579 52.1088 97.8572 52.1123L97.8846 52.2537Z" fill="#FFFFFF" transform="matrix(1 0 0 1.0087 1057 504)"/><path d="M91.8444 58.7326 91.667 58.7384 91.5535 55.3424 91.7307 55.3364 91.738 55.552C91.7442 55.7404 91.783 55.8909 91.8538 56.0036 91.9012 56.0852 91.9799 56.1464 92.0901 56.1875 92.168 56.22 92.3696 56.231 92.6954 56.22L96.9681 56.0769C97.3002 56.0657 97.5071 56.0412 97.589 56.0035 97.6708 55.9655 97.7412 55.8921 97.7999 55.783 97.8585 55.6738 97.8847 55.5285 97.8786 55.3464L97.8715 55.1308 98.0487 55.1248 98.1623 58.5209 97.985 58.5268 97.9779 58.3113C97.9714 58.1229 97.933 57.9723 97.862 57.8597 97.8143 57.7781 97.7357 57.7153 97.6255 57.6709 97.5478 57.6382 97.3459 57.6274 97.0203 57.6385L92.7475 57.7814C92.4153 57.7926 92.2085 57.8178 92.1268 57.8573 92.0449 57.8968 91.9745 57.9711 91.9159 58.0803 91.8572 58.1892 91.8309 58.3348 91.8371 58.5168L91.8444 58.7326Z" fill="#FFFFFF" transform="matrix(1 0 0 1.0087 1057 504)"/><path d="M97.305 66.7896 95.564 66.5392 95.5886 66.3685C96.0047 66.325 96.3096 66.2543 96.5028 66.1562 96.6961 66.0581 96.8604 65.909 96.9957 65.709 97.0697 65.5968 97.1286 65.3907 97.1717 65.0902L97.2406 64.6111 92.2786 63.8976C91.9497 63.8503 91.7414 63.8388 91.6539 63.8635 91.5664 63.8881 91.4843 63.9489 91.4074 64.046 91.3304 64.143 91.2788 64.2833 91.2525 64.4669L91.2218 64.6803 91.0463 64.655 91.5305 61.2867 91.706 61.312 91.6753 61.5255C91.6486 61.7121 91.6602 61.8671 91.7103 61.9905 91.7426 62.0791 91.8092 62.1549 91.9099 62.2177 91.981 62.2633 92.1776 62.3094 92.5001 62.3558L97.4622 63.0692 97.5291 62.6043C97.5914 62.1711 97.5449 61.8432 97.3896 61.6208 97.173 61.3088 96.8329 61.0824 96.3689 60.9414L96.395 60.7611 98.136 61.0113 97.305 66.7896Z" fill="#FFFFFF" transform="matrix(1 0 0 1.0087 1057 504)"/><path d="M94.2476 75.7408 94.082 75.6775C94.1316 75.4672 94.1322 75.2913 94.0839 75.1497 94.0158 74.9524 93.7643 74.586 93.3297 74.0501L91.6359 71.8928 90.1678 71.3308C89.8545 71.2107 89.6535 71.1527 89.5648 71.1564 89.4762 71.1599 89.3841 71.1992 89.2889 71.274 89.1935 71.3486 89.1151 71.4666 89.0533 71.6276L88.9231 71.9678 88.7575 71.9044 90.0616 68.4984 90.2272 68.5618 90.1057 68.8796C90.0371 69.0585 90.0141 69.2122 90.0369 69.3407 90.0489 69.4343 90.0972 69.5229 90.1815 69.6064 90.2406 69.6666 90.4222 69.7551 90.7266 69.8716L91.9441 70.3377 95.0911 69.9056C95.7128 69.8184 96.0915 69.7343 96.2271 69.6528 96.3627 69.5713 96.4691 69.4342 96.5465 69.2414L96.7121 69.3049 95.5982 72.2141 95.4326 72.1507 95.4821 72.0209C95.5495 71.8447 95.5714 71.7119 95.5476 71.6226 95.5236 71.533 95.4833 71.4773 95.4267 71.4557 95.3193 71.4145 95.0035 71.4304 94.4795 71.5037L92.05 71.8307 93.4624 73.6239C93.806 74.0668 94.051 74.3161 94.1973 74.3721 94.2779 74.403 94.3597 74.3898 94.4432 74.3329 94.5567 74.26 94.6729 74.0906 94.7917 73.8248L94.9573 73.8882 94.2476 75.7408Z" fill="#FFFFFF" transform="matrix(1 0 0 1.0087 1057 504)"/><path d="M85.4864 84.0175C85.4864 84.6631 84.963 85.1866 84.3173 85.1866 83.6716 85.1866 83.1482 84.6631 83.1482 84.0175 83.1482 83.3718 83.6716 82.8484 84.3173 82.8484 84.9629 82.8484 85.4864 83.3718 85.4864 84.0175Z" fill="#F2F2F2" fill-rule="evenodd" transform="matrix(1 0 0 1.0087 1057 504)"/><path d="M57.0437 25.1109C38.9967 25.1109 24.2773 39.8467 24.2773 57.9141 24.2773 75.4946 38.2147 89.9187 55.5929 90.6833L55.2809 90.2192C38.2953 89.2973 24.726 75.1419 24.726 57.9141 24.726 40.0942 39.2437 25.5602 57.0437 25.5602 74.8437 25.5602 89.3614 40.0942 89.3614 57.9141 89.3614 75.1725 75.7444 89.3485 58.7166 90.2249L58.492 90.6834C75.8715 89.9201 89.8102 75.4954 89.8102 57.9141 89.8101 39.8467 75.0909 25.1109 57.0437 25.1109Z" fill="#FFFFFF" transform="matrix(1 0 0 1.0087 1057 504)"/></g></g></g><text fill="#FFFFFF" font-family="Microsoft YaHei UI,Microsoft YaHei UI_MSFontService,sans-serif" font-weight="400" font-size="83" transform="matrix(1 0 0 1 1175.84 591)">SeuQuant</text></g></svg>